<?xml version="1.0" standalone="no"?>
<!DOCTYPE svg PUBLIC "-//W3C//DTD SVG 20010904//EN"
 "http://www.w3.org/TR/2001/REC-SVG-20010904/DTD/svg10.dtd">
<svg version="1.0" xmlns="http://www.w3.org/2000/svg"
 width="890.000000pt" height="255.000000pt" viewBox="0 0 890.000000 255.000000"
 preserveAspectRatio="xMidYMid meet">

<g transform="translate(0.000000,255.000000) scale(0.100000,-0.100000)"
fill="#000000" stroke="none">
<path d="M4438 2543 l4442 -3 0 -1270 c0 -840 3 -1270 10 -1270 7 0 10 432 10
1275 l0 1275 -4452 -2 -4453 -3 4443 -2z"/>
<path d="M2380 1680 l0 -80 170 0 170 0 0 -465 0 -465 95 0 95 0 2 463 3 462
173 3 172 2 0 80 0 80 -440 0 -440 0 0 -80z"/>
<path d="M6867 1753 c-4 -3 -7 -39 -7 -80 l0 -73 90 0 90 0 0 80 0 80 -83 0
c-46 0 -87 -3 -90 -7z"/>
<path d="M7200 1215 l0 -545 85 0 85 0 0 545 0 545 -85 0 -85 0 0 -545z"/>
<path d="M5490 1575 l0 -114 -62 -3 -63 -3 -3 -62 -3 -63 65 0 64 0 4 -277 c3
-258 4 -281 23 -313 11 -19 37 -43 58 -53 44 -22 136 -32 201 -23 l46 7 0 65
0 64 -58 0 c-97 0 -96 -3 -100 286 l-4 244 81 0 81 0 0 65 0 65 -80 0 -80 0 0
115 0 115 -85 0 -85 0 0 -115z"/>
<path d="M8490 1575 l0 -115 -65 0 -65 0 0 -65 0 -65 64 0 65 0 3 -284 c3
-271 4 -286 24 -313 45 -60 130 -83 248 -69 l56 7 0 65 0 64 -60 0 c-102 0
-100 -5 -100 285 l0 245 80 0 81 0 -3 63 -3 62 -77 3 -78 3 0 114 0 115 -85 0
-85 0 0 -115z"/>
<path d="M3541 1463 c-48 -17 -141 -101 -141 -128 0 -8 -4 -15 -10 -15 -6 0
-10 30 -10 70 l0 71 -77 -3 -78 -3 -3 -392 -2 -393 84 0 84 0 4 228 c3 211 5
231 26 277 45 98 103 139 200 138 l62 0 0 83 0 84 -47 -1 c-27 0 -68 -8 -92
-16z"/>
<path d="M4840 1466 c-98 -22 -175 -75 -199 -139 -15 -40 -14 -122 3 -160 33
-78 108 -119 286 -157 155 -33 210 -67 210 -131 0 -71 -132 -119 -242 -89 -50
14 -94 53 -108 95 l-12 35 -85 0 -85 0 7 -42 c11 -62 38 -111 86 -151 56 -49
116 -68 229 -74 160 -9 281 35 345 125 25 37 30 54 33 115 3 65 1 76 -26 117
-40 63 -104 95 -262 130 -72 17 -141 35 -153 41 -69 36 -86 88 -41 130 22 20
37 24 102 27 92 4 139 -15 162 -65 l15 -33 92 0 92 0 -14 45 c-28 94 -97 154
-205 179 -77 18 -154 19 -230 2z"/>
<path d="M6269 1466 c-60 -16 -103 -44 -134 -86 l-25 -34 0 57 0 57 -80 0 -80
0 0 -540 0 -540 85 0 85 0 0 196 0 195 34 -35 c47 -51 116 -79 207 -84 105 -6
172 15 238 74 159 143 175 473 30 638 -84 97 -229 138 -360 102z m166 -150
c124 -73 163 -305 74 -440 -33 -50 -112 -96 -163 -96 -90 0 -168 54 -206 143
-33 74 -33 210 -1 282 43 96 97 134 195 135 45 0 69 -6 101 -24z"/>
<path d="M7795 1467 c-158 -42 -260 -160 -284 -332 -28 -197 52 -371 207 -447
64 -32 71 -33 187 -33 110 0 125 2 175 27 156 77 229 218 217 418 -7 122 -35
190 -111 266 -45 45 -77 67 -121 83 -73 28 -200 36 -270 18z m203 -146 c75
-38 121 -120 130 -228 18 -232 -168 -383 -339 -274 -69 43 -102 113 -107 226
-3 74 0 100 17 146 22 57 65 107 116 133 42 22 137 21 183 -3z"/>
<path d="M3797 1453 c-11 -10 -8 -512 3 -582 20 -118 68 -178 167 -207 74 -21
183 -15 239 14 22 11 55 37 72 56 17 20 34 36 37 36 3 0 5 -22 5 -50 l0 -50
80 0 80 0 0 395 0 396 -82 -3 -83 -3 -5 -275 c-5 -254 -7 -278 -26 -310 -51
-88 -184 -117 -259 -58 -57 45 -59 59 -63 366 l-4 282 -77 0 c-43 0 -81 -3
-84 -7z"/>
<path d="M6867 1454 c-4 -4 -7 -182 -7 -396 l0 -388 90 0 90 0 -2 393 -3 392
-80 3 c-45 1 -84 0 -88 -4z"/>
<path d="M1425 1225 c-50 -36 -135 -97 -190 -137 -55 -39 -102 -73 -104 -75
-2 -1 -2 -6 1 -9 4 -3 62 9 130 26 247 63 312 80 315 83 4 4 -48 160 -56 169
-4 4 -47 -22 -96 -57z"/>
</g>
</svg>
